<svg xmlns="http://www.w3.org/2000/svg" viewBox="0 0 400.46 379.19"><defs><style>.cls-1{fill:#fff;}.cls-2{fill:#231f20;}</style></defs><title>bw_logo</title><g id="Layer_2" data-name="Layer 2"><g id="final_2-color_logo" data-name="final 2-color logo"><path class="cls-1" d="M399.46,196.82c0-3.2-1.24-6.36-3-9.8l-.45-.88h0l-.46-.89c-9-17-20.75-34.63-24.13-38.77l0-.06,0-.06a17.88,17.88,0,0,1-1.79-6.45c-.36-3-.24-6-.41-7.56-.2-1.38-.91-2.32-1.94-3.78s-2.29-3-3.6-4.78c-1.89-2.65-3.91-5.53-5.52-7.84-.79-1.14-1.5-2.17-2-3s-.82-1.22-.94-1.44c-.73-1.29-1.45-2.21-1.75-2.91,0-.09-.09-.18-.13-.28l-.12-.29.06-.31a27.69,27.69,0,0,0,.52-5.41V102c0-6.62-2.66-17-14.73-23.91q-4.43-2.53-8-4.76l-1.07-.68.91-.89a12.14,12.14,0,0,0,3.58-8.53v-.18a12.32,12.32,0,0,0-3.74-8.84l-.44-.4A185.5,185.5,0,0,0,200.33,1h-.19A185.68,185.68,0,0,0,70,54l-.11.09A12.46,12.46,0,0,0,66,63v.27A12.25,12.25,0,0,0,68,69.68l.58.92-1,.51c-1.49.77-3.42,1.81-5.32,3-3.13,2-6.14,4.16-7.35,6.79-1,2.33-.95,3.4-1.79,5.58a64.41,64.41,0,0,1-3.39,7c-1.28,2.35-2.44,4.35-2.9,5.35a11.08,11.08,0,0,0-.68,4.35,36,36,0,0,0,.34,4.61l.08.6-.48.35A29.65,29.65,0,0,0,34,133.05a36.93,36.93,0,0,0,.28,4.49l.05.42-.26.33c-4.5,5.62-23.95,30.17-29.92,45.38-.34.91-1.07,1.74-1.78,3.18A12.41,12.41,0,0,0,1,192.43v.39c0,2.9.94,5.91,4.25,9l1.19,1.06.23.17c.18.12.25.2.54.4s.79.55,1.54,1c4.5,2.75,14,9.53,18.54,20l0,0v0l.14.36a2.45,2.45,0,0,0,.68,1c.4.27.17.13.49.25a9.9,9.9,0,0,0,1.33.22c1.53.19,3.69.36,4.19.4h.27a2.41,2.41,0,0,0,.6-.16l.64-.24.46.51c.17.19.3.35.45.49,2.18,2.15,6.12,4.35,13.08,4.52h0a.06.06,0,0,0,.06,0h0s0-.06,0-.06l-1.11-.62c-1.22-.94-3.25-3.23-5.45-8.82l-.32-.83.78-.42a80.35,80.35,0,0,1,18.65-7.31l.35-.09.32.16a16.27,16.27,0,0,1,5.27,3.61l.38.46-.22.55a32.08,32.08,0,0,0-1.09,3.7,40.2,40.2,0,0,0-1.12,9.27,32.59,32.59,0,0,0,.76,7.12l.14.65-.54.38s-.26.18-.71.56A21.46,21.46,0,0,0,64,241.71a17.31,17.31,0,0,0-3.81,5.63l-.13.34-.31.17-.9.51-1,.54-.45-1c-.39-.87-.76-1.73-1.08-2.58A58.11,58.11,0,0,1,54.15,238h0l-.08-.42a.08.08,0,0,0-.07,0,.05.05,0,0,0-.05,0,26.77,26.77,0,0,0-3,11.91h0c0,.61,0,1.19.07,1.75l.14,1.61-1.5-.6a2.25,2.25,0,0,0-.78-.15h0a2.45,2.45,0,0,0-.49,0,2.35,2.35,0,0,0-1.54,1.16,2.9,2.9,0,0,0-.34.87v0h0v0s0,.09,0,.15-.06.33-.1.58c-.08.5-.19,1.22-.3,2.1a55.43,55.43,0,0,0-.43,6.71c.06,4.62.52,9.93,3.91,13.48,5.22,5.21,14.36,14.63,15,15.24h0l.08.08a10.58,10.58,0,0,0,3.4,2l1.21.44-.73,1.07A12.25,12.25,0,0,0,66.27,303V303h0l0,.06A12.32,12.32,0,0,0,70,312l.43.4A185.45,185.45,0,0,0,179.84,364l.61.07.22.57a20.92,20.92,0,0,0,39.11.06l.22-.58.61-.06a185.66,185.66,0,0,0,110-51.85l.08-.08a20.48,20.48,0,0,0,2-2.77,12.68,12.68,0,0,0,2-6.16c0-.07,0-.07,0-.12a13.07,13.07,0,0,0-2-6.79l-.72-1.12,1.27-.38a9.67,9.67,0,0,0,4.87-3.12,6.42,6.42,0,0,0,.75-1.23c.93-1.79,2.38-5.15,3.93-8.47a46.23,46.23,0,0,1,4.29-7.88c1.32-1.69,5.1-4.34,5.19-8.76,0-.17,0-.31,0-.41a13.63,13.63,0,0,0-1.47-4.8c-.32-.68-.64-1.26-.88-1.68-.07-.12-.14-.22-.19-.32l-.25-.43.19-.47a16.76,16.76,0,0,0,1.28-6.61v0a23.54,23.54,0,0,0-2.64-10.43.1.1,0,0,0-.05,0h0a.06.06,0,0,0-.05,0h0v0l0,.11c0,.1-.05.24-.09.41-.08.36-.21.86-.37,1.48-.34,1.24-.86,2.94-1.56,4.8a38.41,38.41,0,0,1-2.21,4.78l-.55,1-.92-.66C331.21,244,330,230.69,330,225c0-1.72.12-2.77.12-2.8l.07-.59.56-.22a32.63,32.63,0,0,1,12.18-2.22,46,46,0,0,1,9.32,1l.21,0,.18.14,1.44,1.06.75.53.7.48-.36.76A31.29,31.29,0,0,1,351,230a14.25,14.25,0,0,1-2.47,2.39,6.57,6.57,0,0,1-.71.45l-.18.09-.09,0a.06.06,0,0,0,0,0h-.08l.08,0a.06.06,0,0,0,.06.05h0c7.16-.6,11.94-2.49,15.14-4.58l.36-.24.42.1a6.2,6.2,0,0,0,1.26.19c.3,0,.59,0,.88,0h.14a9.68,9.68,0,0,0,7.29-3.39c7.35-8.26,18.71-15.94,23.45-21a10.6,10.6,0,0,0,2.83-6.25h0Z"/><path class="cls-2" d="M382.23,174.83s-.72,2.91-8.75-2.37c0,0,4.86,6.26,8.42,7.24S383.51,175.89,382.23,174.83Zm-7.43-11.91s-.09,3.54-6.95,1.09c0,0,3.35,5.14,8,6.13C380.79,171.2,377.53,165.83,374.8,162.92Zm-2.86-4.34c-5.18-7-7.77-9.51-9.76-22.57-1.78-11.73-27.14,0-27.14,0-12.46,3.12-17.29-.13-19.1-2.52,0-.05-.53-.42-.23.24,6.89,15.18,21.94,7.35,21.94,7.35l2.77,2.76c-.65-1.6-.8-4-.35-7.36.58-.21,1.59-.62,2.72-.93a4.36,4.36,0,0,1,.84,2.9c.08,1.38-.74,3.22-.74,4.4a1.91,1.91,0,0,0,.82,1.61c2.89-1.71,5.05-5.84,6.07-8.44.74.21,1.47.42,2.16.66-1.37,7.23-6.2,10.35-9,9.57a3.54,3.54,0,0,1-.39-.14c-8.81,4-3.59,5.15-3.59,5.15,7.32,0,13.94-5,13.94-5,2.44,1.22,5,7.1,5,7.1,2.74.3,7.31,2.74,7.31,2.74C369.81,160.41,371.94,158.58,371.94,158.58ZM61.85,191c-.21-1.11-17.19,3.42-31,14.72,0,0-3.13,2.39-2.92,3.48.4,2.12,2.89.76,3.53.13C42.23,198.67,62.05,192.09,61.85,191ZM260.62,296.54,265.49,307l6.4,11.3,0,.11-17.21-19.06-3.73,1.73,13.66,29.29,3.88-1.81-5-10.76-5.16-9.56-1.12-1.79,0-.11,17.36,19.37,3.61-1.68-13.65-29.28ZM22.34,166.66c-1.55,2.58-2.89,4.79-4.23,7.29h0c-1.42,2.71-3.68,7.06-4.65,9.05a10.63,10.63,0,0,0,8.37-2.19c.34-8.43,8.42-26,8.42-26a141.39,141.39,0,0,0-7.92,11.83Zm14,47.19s-2.51,2.05-2.36,3c.29,1.79,2.29.61,2.81.07,8.75-9.13,24.63-14.9,24.48-15.84S47.52,204.14,36.34,213.85ZM145.13,73.93,157,68.82,139.25,27.65l-11.86,5.11.23.54Zm90.09-32.38,10.36,29.83,11.82,4,14.37-42.47-12.24-4.14-8,23.57L241.18,22.56l-11.82-4L215,61l12.24,4.14Zm-51.47,22.5h0c.88,0,1.78,0,2.69-.13,13.26-1.22,22.37-11.06,22.36-24.05,0-.88,0-1.77-.13-2.68-1.18-12.62-12.37-20.7-24.22-20.69-.8,0-1.61,0-2.41.11-12,1.12-22.48,10.58-22.48,23,0,.69,0,1.39.1,2.1C160.91,55.11,170.87,64,183.75,64.05ZM183.22,29a9.46,9.46,0,0,1,1.07-.06h0c5.81,0,10.8,4.43,11.27,9.57h0q.06.66.06,1.29c0,6.39-4.46,11.27-10.3,11.82-.36,0-.71.05-1.06.05-5.79,0-10.81-4.43-11.43-11.05a7.56,7.56,0,0,1,0-.83C172.78,34.58,177.27,29.5,183.22,29Zm82.33,46.53a27.48,27.48,0,0,0,10.06,13.29A20.35,20.35,0,0,0,287,92.63c.51,0,1,0,1.54-.07,4.85-.48,8.39-3.75,10.9-7.37a11.73,11.73,0,0,0,2.28-6.74c0-3.61-1.86-6.92-4.36-10l-1.86-2.33a13,13,0,0,1-1.76-2.74,3.58,3.58,0,0,1-.31-1.36c0-1.27,1-2,2.46-2a4.85,4.85,0,0,1,2.71.89,11.1,11.1,0,0,1,4.24,6.43L303,68l10.28-5.5-.24-.51a30.38,30.38,0,0,0-9.48-11.15h0a16.58,16.58,0,0,0-9.44-3.14A14.71,14.71,0,0,0,282,54.51a12.57,12.57,0,0,0-2.63,7.14c0,3.81,2.38,6.95,5.33,10.54,1.2,1.42,3.2,3.82,3.15,5.6a2.2,2.2,0,0,1-.39,1.29,3,3,0,0,1-2.61,1.37,5.78,5.78,0,0,1-3.15-1.1c-3.06-2.12-4.48-5.56-5.38-9.16l-.18-.72L265.37,75ZM116.45,94.37l20.4-16.7L129.75,69l-10.4,8.52L98,51.5l-10,8.18.38.46ZM379,181.21c7.73,8.37,7.82,3,7.82,3C385,185.49,379,181.21,379,181.21Zm21.44,15.67c0-3.78-1.54-7.36-3.53-11.21h0c-9.1-17.31-21.18-35.49-24.71-39.82a17,17,0,0,1-1.66-6.06c-.34-2.87-.23-5.8-.41-7.58A9.73,9.73,0,0,0,368,128c-1-1.4-2.31-3-3.59-4.77-1.89-2.65-3.91-5.52-5.51-7.83s-2.84-4.14-2.93-4.33c-.75-1.31-1.52-2.36-1.71-2.82l-.12-.27a28.72,28.72,0,0,0,.54-5.61v-.16c.05-6.85-2.7-17.81-15.23-24.94q-4.41-2.53-7.93-4.75a13.17,13.17,0,0,0,3.88-9.31v-.12a13.31,13.31,0,0,0-4.06-9.57l-.42-.38A186.49,186.49,0,0,0,200.33,0h-.19A186.64,186.64,0,0,0,69.37,53.24l-.14.12A13.48,13.48,0,0,0,65,63h0v.11a13.32,13.32,0,0,0,2.08,7.07c-1.5.78-3.46,1.83-5.4,3-3.14,2-6.32,4.23-7.73,7.24-1.07,2.47-1,3.61-1.81,5.62A62.79,62.79,0,0,1,48.84,93c-1.28,2.35-2.43,4.32-2.93,5.43a11.8,11.8,0,0,0-.77,4.75,35.87,35.87,0,0,0,.35,4.75A30.68,30.68,0,0,0,33,133.05a37.2,37.2,0,0,0,.29,4.62c-4.52,5.65-24,30.16-30.08,45.68-.38,1.11-3.17,4-3.19,9.08v.1c-.06,3.22,1,6.69,4.59,10.05l1.25,1.11.23.17c.15.08.61.51,2.16,1.47,4.41,2.69,13.71,9.4,18.15,19.53,0,.11.1.28.19.49a3.6,3.6,0,0,0,.95,1.31,2.14,2.14,0,0,0,.8.41,9.39,9.39,0,0,0,1.52.27c1.72.21,4.28.4,4.3.4h.37a3.61,3.61,0,0,0,.86-.22c.16.18.31.35.5.53,2.37,2.35,6.6,4.64,13.78,4.81h0a1.07,1.07,0,0,0,1.06-.95,1,1,0,0,0-.85-1.15h0c-.32-.11-2.9-1.37-5.82-8.82a79.89,79.89,0,0,1,18.42-7.22,15.42,15.42,0,0,1,4.93,3.35,39.44,39.44,0,0,0-1.5,20.68s-4.7,3.33-6.61,8.25l-.9.51c-.38-.85-.74-1.7-1.06-2.53a54.07,54.07,0,0,1-2.3-7.62,1.07,1.07,0,0,0-.91-.84,1,1,0,0,0-1.08.58,27.81,27.81,0,0,0-3.12,12.36c0,.64,0,1.25.08,1.83a3.29,3.29,0,0,0-1.17-.22,2.93,2.93,0,0,0-.67.07,3.26,3.26,0,0,0-2.23,1.65,4,4,0,0,0-.45,1.17l0,.07a58.15,58.15,0,0,0-.88,9.78c.07,4.66.49,10.26,4.21,14.18,5.38,5.38,15,15.25,15,15.26l.12.11a11.45,11.45,0,0,0,3.72,2.19A13.29,13.29,0,0,0,65.27,303v.11h0a13.29,13.29,0,0,0,4.06,9.58l.42.38a186.45,186.45,0,0,0,110,52,21.93,21.93,0,0,0,41,.05,186.64,186.64,0,0,0,110.61-52.15l.11-.11a21.83,21.83,0,0,0,2.08-2.92,13.55,13.55,0,0,0,2.15-6.67v-.14a14.19,14.19,0,0,0-2.19-7.31,10.79,10.79,0,0,0,5.36-3.45,7.83,7.83,0,0,0,.86-1.4c1-1.85,2.4-5.2,3.95-8.51a45.53,45.53,0,0,1,4.19-7.71c1-1.4,5.27-4.34,5.38-9.35,0-.19,0-.35,0-.48a14.47,14.47,0,0,0-1.57-5.17c-.33-.7-.67-1.3-.92-1.74-.07-.12-.13-.23-.19-.32a17.85,17.85,0,0,0,1.36-7,24.55,24.55,0,0,0-2.74-10.89,1.06,1.06,0,0,0-2,.25,47.91,47.91,0,0,1-2,6.69,35.73,35.73,0,0,1-2.15,4.65c-14-10.21-11.91-29-11.91-29,7.18-2.88,14.83-2.43,20.92-1.16l1.47,1.08.76.53a30.16,30.16,0,0,1-4,6.53,12.57,12.57,0,0,1-2.28,2.22,6.12,6.12,0,0,1-.6.38l-.12.06h0a1.07,1.07,0,0,0,.38,2.06h.09c7.3-.61,12.26-2.55,15.6-4.74a7.88,7.88,0,0,0,1.41.21c.33,0,.64,0,1,0h.13a10.69,10.69,0,0,0,8-3.72c7.24-8.14,18.54-15.77,23.44-21a11.46,11.46,0,0,0,3.14-7.88v-.05h0ZM74.25,58.82l.3-.27A179.22,179.22,0,0,1,200.15,7.42h.17a179.22,179.22,0,0,1,125.6,51.13l.3.27a5.93,5.93,0,0,1,1.8,4.26,5.81,5.81,0,0,1-1.77,4.22l-3.35,3.33a3.61,3.61,0,0,0-1,2.61,4.28,4.28,0,0,0,.08.81h0a21.83,21.83,0,0,1-25.87,26.45h0l-.15,0a3.68,3.68,0,0,0-.89-.11,3.54,3.54,0,0,0-2.6,1.11l-.06,0-3,3a5.84,5.84,0,0,1-8.62,0A114.14,114.14,0,0,0,239.28,78a112.5,112.5,0,0,0-78,0,114.19,114.19,0,0,0-41.54,26.51,5.82,5.82,0,0,1-4.32,1.91,5.91,5.91,0,0,1-4.29-1.89l-3-3-.06-.06a3.55,3.55,0,0,0-2.6-1.08,3.74,3.74,0,0,0-.89.11l-.15,0h-.05A21.8,21.8,0,0,1,78.51,74h0a3.59,3.59,0,0,0,.09-.81,3.55,3.55,0,0,0-1-2.61L74.22,67.3a5.81,5.81,0,0,1-1.77-4.22A5.93,5.93,0,0,1,74.25,58.82Zm226.06,55.43s.26,9.59,7,13.38C304.8,127.56,295.86,129,300.31,114.25Zm3.75,68.92a103.83,103.83,0,1,1-30.41-73.42A103.44,103.44,0,0,1,304.06,183.17ZM46.32,230.46c-4.64-.65-7.35-2.34-9-3.93a2.49,2.49,0,0,1-.27-.31l.59-.43s1.08-.78,3.08-2c.43-.26.92-.55,1.44-.84A28,28,0,0,0,46.32,230.46Zm7.41,10.34c1,3.68,3.18,9.94,6.84,14.45a10.44,10.44,0,0,1-4.8,1.31,7.41,7.41,0,0,1-2.53-.46,18.31,18.31,0,0,1-1.19-6.66A24.11,24.11,0,0,1,53.73,240.8Zm14,22.19a6,6,0,0,0-.3,3.3s-5.39-.9-6.59-3a64.89,64.89,0,0,0,1.2,9s-7.19-7.79-8.09-10.18c0,0,.6,9.89,3.59,15.28,0,0-7-5.14-6.47-19.18h0a10.41,10.41,0,0,0,2.4.91h0a9.06,9.06,0,0,0,1.1.19l.18,0a9.16,9.16,0,0,0,1,.05,13.21,13.21,0,0,0,6.47-1.83,12.78,12.78,0,0,0,1.69.12A8,8,0,0,0,70.28,255a7.67,7.67,0,0,0,1-1.47,18.51,18.51,0,0,0,3.22.29,14.08,14.08,0,0,0,9.82-3.77,14.35,14.35,0,0,0,2.6-3.19,13.39,13.39,0,0,0,10-8.65L97,238l0-.25c-1.21-18.08-9.23-25.93-9.42-26.09l-.28-.28-.38-.08a48.14,48.14,0,0,0-10.69-1.17c-.82,0-1.64,0-2.46.07l-.61,0c-.8,0-1.59.1-2.38.18h0c-.8.08-1.59.18-2.37.29l-.59.09c-.77.11-1.52.24-2.27.38h0l-2.26.47-.56.13c-.73.17-1.45.35-2.15.54h0q-1.08.28-2.13.6l-.53.16c-.67.21-1.34.42-2,.65h0l-2,.7-.49.18c-.62.24-1.24.47-1.84.72,0,0,0,0,0,0-.62.24-1.22.5-1.8.75l-.43.19-1.65.73,0,0c-.55.25-1.08.51-1.59.76l-.39.19c-.48.23-.94.47-1.39.7l-.07,0-1.33.7-.37.2-1.07.6-.11.06c-2.34,1.32-4,2.39-4.72,2.9l-5.87-.73c-.3-.65-.63-1.28-1-1.9l-.2-.36c-.32-.6-.66-1.18-1-1.75-.06-.11-.13-.2-.19-.31-.35-.56-.71-1.1-1.08-1.64l-.06-.1c-.39-.56-.79-1.1-1.2-1.63l-.21-.27c-.4-.53-.81-1-1.22-1.53a1.07,1.07,0,0,1-.14-.16c-.42-.49-.83-1-1.26-1.43l-.08-.08c-.43-.48-.88-.94-1.32-1.39l-.17-.17c-.45-.45-.89-.88-1.34-1.3h0l2.29-.84c3-9.89,13.18-10.19,13.18-10.19a24.29,24.29,0,0,1,1.8-13.48l-5.39,4.79c-13.32,1.11-20.91,5.57-25.13,9.53h0a10.12,10.12,0,0,1-1.8-3.58,2.68,2.68,0,0,1-.07-.27,3.82,3.82,0,0,1-.09-.44,3,3,0,0,1-.06-.42c0-.11,0-.21,0-.32s0-.5,0-.74a10.55,10.55,0,0,1,1.27-4.82A14.64,14.64,0,0,1,7,186.2a4.3,4.3,0,0,1,.37-.46l.17-.2.09-.24c3-8,10.64-19.5,17.47-28.93S37.94,139.57,38,139.55l.4-.49-.1-.63a33.48,33.48,0,0,1-.44-5.38,25.92,25.92,0,0,1,10.18-21c.57-.42,1-.74,1.35-.94s.47-.27.46-.27l.81-.44L50,101.83a144.82,144.82,0,0,0,9.29-20.6c.82-.41,1.6-.84,2.35-1.26l.71-.41,1.47-.86.75-.47c.43-.27.86-.53,1.26-.8l.69-.45c.4-.26.79-.52,1.16-.78l.58-.4c.4-.27.77-.54,1.13-.8l.41-.29,2.41-1.78.84.84a27.05,27.05,0,0,0-.54,5.41v.06a86.91,86.91,0,0,1-10.16,4.45L56.63,94.91s7.18-.6,9.28,9.59a35.73,35.73,0,0,1,11.42-9.81c.31.44.63.87,1,1.3a19.07,19.07,0,0,0-7.58,10l2.69,1.2a46.37,46.37,0,0,1,10.28-6,26.47,26.47,0,0,0,3.28,2c-3.4,1.87-7.12,4.26-8.46,6.35l1.79,1.8s8.09-4.5,9.59,4.19-7.79,10.19-10.48,10.19A11.8,11.8,0,0,0,83,132.36s-7.19,5.69-17.38,0-13.68-5-22.36-2.93A11.55,11.55,0,0,0,42,139.28c-2,1.92-3,1.72-5.13,7.56-.87,3.79-4.77,6.5-4.77,6.5s10.48.89,19.17-8.69c0,0,6.59,7.19,16.48-5.1,0,0,7.79,6.9,20.38-.9a22.44,22.44,0,0,1-16.48,6.29s5.09,4.8,6.89,9.59c0,0-3.9-3.59-13.18-4.49,0,0,1.19,6.89,5.39,11.09,0,0-5.39-4.5-15.28-2.7,0,0,8.69,12.58,21.87,13.78,0,0-5.09,1.8-7.49,4.49,0,0,5.09,3.3,12.88.6,0,0-8.09,4.5-11.68,6,0,0,5.39,1.79,17.07-1.8,0,.56,0,1.11,0,1.67s0,.94,0,1.41A19.92,19.92,0,0,1,86,192.29s-5.4-4.8-10.79-6c0,0,6.29,8.69,2.7,18.58,0,0,2.24,3.48,11.09,3.1.7,0,1.29,0,1.82,0a111.69,111.69,0,0,0,13.12,32.76A29.45,29.45,0,0,1,99.17,242l5.39,3s-8.68,3-12.58,3.59a31.82,31.82,0,0,0,3.9,3.3s-10.49,4.79-14.69,4.49c0,0,2.4,2.4,3.6,2.7,0,0-6.89,1.8-9,.6l-.6,4.79S69.21,265.1,67.71,263Zm9.08-44a3.75,3.75,0,0,1,4.2-.35c2.3,1.78.59,3.41-1.23,6.84-2.94,5.55,1,9.35-1.88,14.91s-6.43,7.12-7.72,6.13c-1.93-1.47.91-4.54,1.86-7C74.06,234.24,69.5,226.66,76.79,219ZM59.23,135.89l.33-.12,1.46.53c.82,6.1-.31,9-2.91,9.78s-7.59-2.34-9-9.57c.63-.22,1.29-.42,2-.6.9,2.78,2.88,7.24,5.61,8.78a1.11,1.11,0,0,0,.51-1C57.07,141.55,56.48,137,59.23,135.89Zm268,170.67c-.23.29-.75.92-.93,1.17-29.56,30.6-69.9,47.49-111.37,50.66a14.72,14.72,0,0,1-29.36,0c-41.47-3.17-81.81-20.06-111.37-50.66-.18-.25-.7-.88-.93-1.17a5.06,5.06,0,0,1-1-3.4c0-2.06,1.53-3.74,2.67-4.91s2.62-2.64,2.62-2.64a4.78,4.78,0,0,0,.79-1.38,3,3,0,0,0,0-1.63,21.14,21.14,0,0,1-.71-5.37,21.55,21.55,0,0,1,21.52-21.59,21.88,21.88,0,0,1,5.34.67,3.35,3.35,0,0,0,1.61,0,2.48,2.48,0,0,0,1.7-1c.28-.28,1.83-2,3.22-3.26s2.71-2.3,4.64-2.3c2.16,0,3.71,1.22,5.13,2.83a103,103,0,0,0,35.37,23.81,112.42,112.42,0,0,0,88,0,102.94,102.94,0,0,0,35.46-23.85c1.42-1.61,3-2.83,5.13-2.83,1.93,0,3,.83,4.64,2.3a35.74,35.74,0,0,1,3.21,3.26,2.44,2.44,0,0,0,1.71,1,3.52,3.52,0,0,0,1.61,0,21.88,21.88,0,0,1,5.34-.67,21.48,21.48,0,0,1,20.81,27,3,3,0,0,0,0,1.63,4.78,4.78,0,0,0,.79,1.38s1.6,1.58,2.62,2.64,2.67,2.85,2.67,4.91A5.06,5.06,0,0,1,327.22,306.56Zm21.23-63.07a21,21,0,0,1,1.32,7.15,16.32,16.32,0,0,1-.93,5.54c-.06.14-.11.28-.16.41l-1,.3a15.54,15.54,0,0,1-3.67.53,12.64,12.64,0,0,1-2.57-.37C345.23,253.19,347.4,247.13,348.45,243.49Zm-4.66,16.75a19.74,19.74,0,0,0,3.67-.32,25.9,25.9,0,0,1,1.41,3.2c.84,3.48-.67,3.75-1.51,4.11-8.78,3.53-9.06,15-14.19,12.88-6.1-2.52,1.26-19.34,1.26-19.34s-11.9,4.43-14.42,2.54,2.13-7.19,2.13-7.19-10.34,2.6-12.44,1.13,1.53-6.79,1.53-6.79-7.07,3.37-10.23,1.69,3-7.61,3-7.61-6.75,2.82-8.85,1.13a1.9,1.9,0,0,1-.54-1.82,111.43,111.43,0,0,0,7.62-13.91.2.2,0,0,1,0,.07c-.08.44-.15.89-.22,1.35h0a30.83,30.83,0,0,0-.38,4.56c0,2.8.47,5.5,2.19,7.47,2.52,2.79,8.92,6.81,16.58,10.37S336.75,260.23,343.79,260.24Zm-11.22-8.14c-.22.21-7.88-1.78-12.17-9.66s2.15-8.93-2.86-12.51-5.9-8.29-1.78-9.66c2.14-.71,3.93-.36,7.51,1.79s2.85,5.72,3.21,16.1S332.78,251.9,332.57,252.1Zm18.66-20.66A30.13,30.13,0,0,0,356,224a24.13,24.13,0,0,0,6.74,3.15A27.65,27.65,0,0,1,351.23,231.44Zm44.36-33.85v0a5,5,0,0,1-.1.66l-3.42-2.79-1.83,1.83c-8.54-7.32-15.55-5.49-15.55-5.49l-8.54,5.49c11.55.71,14.19,8.87,14.39,15.56l0,0c-.85.71-1.69,1.44-2.53,2.19l-.27.23c-.78.7-1.56,1.4-2.33,2.11l-.21.2c-.77.72-1.52,1.45-2.26,2.19l-.48.49c-.74.75-1.47,1.51-2.15,2.28a5.8,5.8,0,0,1-4.55,2.11c-2.5,0-5.6-1.44-8.57-3.36-.69-.45-1.38-.92-2.05-1.4-3.61-2.56-6.59-5.3-8.87-6.26A49.71,49.71,0,0,0,330,211.15c-.47,0-.95,0-1.43,0l-.69,0-.76,0-.93.06-.52,0-1.1.11-.36,0-1.24.17-.21,0c-.46.06-.91.14-1.36.22l-.1,0a34.34,34.34,0,0,0-14.4,6.05q.76-2.34,1.43-4.72c6.18-3,16.3-6.19,30.27-4.64,0,0-8.65-2.74-21.74-2L314.62,204a31,31,0,0,0-4.79,3.17c.25-1.17.49-2.35.71-3.54a26.59,26.59,0,0,1,6.81-3l2.44-7.93c-.74-.06-3.54-1.43-7.54-3.58.07-1.41.12-2.83.14-4.26,5.54,2.43,10.15,4.49,12,5.4,0,0-1.82-5.79,8.55-7,0,0-9.59-1.63-20.57-3.79,0-.82,0-1.63-.1-2.45,13.76,1.69,27.45,1.13,35.91-5.05a62.63,62.63,0,0,1-15.55.92,33.79,33.79,0,0,0,14.33-10.07s-7.31,3.66-18.3,2.75c0,0,11-5.49,14.34-10.37,0,0-13.11,5.18-22.26,5.18,0,0,8.54-3.35,12.2-7l-11.2.93,3-4.57S310,145.47,307,133.27l5.42.66s-4.49-16.42,5.19-21.14c-1.24-1.24-9.92-3.72-9.92-3.72s10.07-.65,14.65,1.18a10.89,10.89,0,0,0-3.07-3.25,23.33,23.33,0,0,0-5.26-2.7s11.29-.61,14.64,2.74c0,0-3.35-6.1-6.09-8.23,0,0,6.71,2.13,10.67,6.71l2.75-.31a32.13,32.13,0,0,0-3.66-11.59,29.58,29.58,0,0,1,8.84,11.9s2.2,3,8.07,2.42l-.11.39.18.45a41.05,41.05,0,0,0,2.29,4.75c1.36,2.37,3.13,5.07,5.48,6.64a36.44,36.44,0,0,0,2.13,4.81c1.4,2.58,3.36,5.54,6.15,7.27v.16a71,71,0,0,0,.44,7.92c.42,3.22,1,6.43,2.65,8.49,2.9,3.46,15.31,22,24.23,39.09,1.89,3.59,3,6.61,3,9A5.37,5.37,0,0,1,395.59,197.59ZM200.24,88.67a94.5,94.5,0,1,0,94.5,94.5A94.49,94.49,0,0,0,200.24,88.67ZM254.76,239h-93.2V226.62h4.15a8.25,8.25,0,0,0,8.18-8.33l-.08-80a8.27,8.27,0,0,0-8.27-8.27h-3.91v-9.37h54.1v9.44H211.4a8.37,8.37,0,0,0-8.31,8.35l0,85.55h27a7,7,0,0,0,6.69-7.29c-.1-1.15-.22-2.82-.22-4a18.59,18.59,0,0,1,10.3-16.52l6.11,6.1a15.92,15.92,0,0,0,1.83,24.94ZM34.2,209.64s-2.82,2.27-2.64,3.3c.33,2,2.57.69,3.15.09,9.8-10.11,27.61-16.48,27.44-17.52S46.72,198.9,34.2,209.64Zm268.93,92.67-18.38-21.9-3.28,2.76,20.77,24.75,8.8-7.38-2.4-2.86ZM198.44,311,192,343.45l4.2-.07,1.09-6.32,6.43-.11,1.31,6.28,4.32-.08L201.82,311ZM203,333.62l-5.14.09,2.28-16.46h.09L202.05,329Zm17.94-24.21-14.08,1.73.45,3.7,5-.61,3.49,28.37,4.25-.53-3.48-28.37,4.8-.59ZM200.24,348a9,9,0,1,0,9,9A9,9,0,0,0,200.24,348Zm0,16.1a7.1,7.1,0,1,1,7.1-7.1A7.1,7.1,0,0,1,200.24,364.13Zm39.36-59.52c-7.91,2.57-4.67,12.82-2.87,18.36s5.21,15.75,13.12,13.18,4.66-12.82,2.86-18.37S247.5,302,239.6,304.61Zm9,27.71c-3.22,1.05-5.43-4.23-7.55-10.75s-3.43-12.08-.21-13.13,5.43,4.23,7.55,10.75S251.82,331.27,248.6,332.32Zm-195.5-171c-.82,16.93,13.29,11.29,13.29,11.29C57.42,169.57,53.1,161.27,53.1,161.27ZM271.49,290.19l11.71,30.93,3.52-2.29-2.43-5.94,5.39-3.5,4.44,4.63,3.63-2.36-23.42-23.31Zm4.81,4.34,7.76,9,3.26,3.45-4.31,2.8-6.78-15.16Zm-52.24,14.35,6.17,31.71,4.2-.82-6.16-31.71ZM202.19,357.2a2.71,2.71,0,0,0,1.73-2.68c0-1.88-1.44-3.16-3.82-3.16a6.74,6.74,0,0,0-2.86.6l-.17.08V362h2v-4.22h.55a1.21,1.21,0,0,1,1.23.84l1.62,3.38h2.2l-1.87-3.85A4.08,4.08,0,0,0,202.19,357.2Zm-2.3-1.17h-.83v-2.78a4.77,4.77,0,0,1,1.05-.11c1.39,0,1.8.54,1.83,1.42C201.91,355.65,201.36,356,199.89,356Zm138-168.71c-.14.71,3.72,1.58,8.63,4.61s10.48,7.95,16.88,13.51c.57.4-.08,1.28-.25,1.15-16.94-13.15-33.57-15.1-33.38-12.92.07.88,3.84.9,8.56,2.65a107.72,107.72,0,0,1,23.25,12.45c.48.3-.07.81-.36.75-19.58-6.92-37.33-10.89-37.1-8.5.09,1,5.65,1.12,12.47,3,9.44,2.65,21.82,7.38,30,10.48.24-.07,1.36.31,3.74-1.73,1.9-1.76,1.63-2.68,1.63-2.68C353.55,190.1,338.37,185,337.92,187.32Zm-225.9,90-21.62,24,3.19,2.87,21.62-24Zm15.18,11.85-6.61,9.44L114,309.77l-.12,0,7.91-24.44L118.43,283,99.9,309.46l3.51,2.46,6.8-9.73,5.7-9.24,1-1.87.12,0-8.1,24.71,3.26,2.29,18.53-26.46ZM71.43,196.4c-2.51-7.9-8.42-9.92-8.42-9.92,6.59,12.58,1.87,21.09,1.87,21.09s7,.83,11.35-2.8c3.44-10.5-4.46-19.37-4.46-19.37C72.81,190.2,71.43,196.4,71.43,196.4Zm113.4,125.43-.79,13-.09.07-4-25.36-4.08-.57-4.49,32,4.24.6,1.65-11.76.87-10.82,0-2.12.1-.07,4,25.7,4,.56,4.49-32-4.24-.59Zm-20.4-15.71-5-1.33L151.1,336l4.14,1.11,4.09-15.27.09,0L161,338.64l4.31,1.15-1.69-16.73c3.61.3,5.67-3.94,6.46-6.88C172.13,308.36,167.45,306.93,164.43,306.12Zm1,9.8c-.84,3.14-2.45,4.84-5.5,3.8l2.76-10.3.66.18C166.49,310.36,166.2,312.94,165.4,315.92Zm-15.53,4.16,1.4-3.46-6-2.42,3.8-9.42,6.72,2.71,1.39-3.45-10.68-4.32-12.11,29.95L145.08,334l1.4-3.45-6.72-2.72,4.11-10.17ZM142.8,302.3l1.75-3.3L132,292.35l-1.75,3.29,4.46,2.37-13.42,25.24,3.79,2L138.52,300Z"/></g></g></svg>