<?xml version="1.0" encoding="iso-8859-1"?>
<!-- Generator: Adobe Illustrator 19.0.0, SVG Export Plug-In . SVG Version: 6.00 Build 0)  -->
<svg version="1.1" id="Capa_1" xmlns="http://www.w3.org/2000/svg" xmlns:xlink="http://www.w3.org/1999/xlink" x="0px" y="0px"
	 viewBox="0 0 512 512" style="enable-background:new 0 0 512 512;" xml:space="preserve">
<g>
	<g>
		<path d="M449.343,370.872c0.161-1.912,0.255-3.813,0.255-5.69c0-35.365-28.771-64.137-64.136-64.137H264.117
			c-8.322,0-16.537,1.639-24.167,4.742v-28.128v-1.117c0-18.371-7.818-36.035-21.449-48.463c0,0-0.001,0-0.001-0.001l-0.59-0.538
			v-15.227l0.481-0.52c14.104-15.227,21.559-33.648,21.559-53.275c0-9.88-1.933-19.581-5.745-28.832
			c-0.797-1.936-1.714-3.917-2.725-5.891c-4.799-9.369-11.427-17.806-19.697-25.074c-7.047-6.194-15.132-11.392-24.03-15.449
			l-1.058-0.481V61.494h0.06c5.523,0,10-4.477,10-10V10c0-5.523-4.477-10-10-10H97.212c-5.523,0-10,4.477-10,10v41.494
			c0,5.523,4.477,10,10,10h0.06v21.293l-1.059,0.483c-8.897,4.057-16.981,9.254-24.029,15.448
			c-8.271,7.268-14.898,15.705-19.697,25.074v0.001c-1.011,1.974-1.928,3.955-2.725,5.891c-3.813,9.251-5.746,18.952-5.746,28.832
			c0,19.627,7.455,38.049,21.559,53.275l0.481,0.52v15.229l-0.59,0.538c-13.631,12.428-21.45,30.092-21.45,48.463v1.117v193.443
			c0,2.002,0.151,4.032,0.448,6.034C47.42,497.012,64.81,512,84.914,512c10.1,0,19.804-3.728,27.325-10.496l1.21-1.089l1.21,1.089
			C122.18,508.273,131.884,512,141.984,512s19.804-3.728,27.325-10.496l1.21-1.089l1.21,1.089
			C179.25,508.273,188.954,512,199.054,512c10.866,0,20.934-4.384,28.363-11.547c10.689,7.493,23.386,11.547,36.7,11.547h121.345
			c35.365,0,64.136-28.772,64.136-64.136c0-1.877-0.094-3.779-0.255-5.69c11.242-7.657,18.641-20.558,18.641-35.156v-0.99
			C467.983,391.429,460.585,378.529,449.343,370.872z M176.754,20v21.494h-0.06h-69.422h-0.06c0,0,0-21.494,0-21.494H176.754z
			 M85.387,113.741c5.576-4.9,12.01-9.03,19.122-12.272l6.911-3.15c3.565-1.625,5.853-5.182,5.853-9.1V61.494h49.422V89.22
			c0,3.918,2.288,7.475,5.853,9.1l6.909,3.148c7.114,3.244,13.548,7.373,19.122,12.272h0.001c1.683,1.48,3.275,3.018,4.776,4.612
			H80.612C82.112,116.758,83.704,115.22,85.387,113.741z M78.941,242.858l3.853-3.513c2.078-1.895,3.263-4.577,3.263-7.39v-23.564
			c0-2.52-0.951-4.946-2.663-6.795l-3.145-3.396c-5.905-6.375-10.256-13.451-12.961-20.968h94.452c5.523,0,10-4.478,10-10
			c0-5.523-4.477-10-10-10H64.047c0.15-6.441,1.411-12.783,3.787-18.882h148.299c2.533,6.504,3.817,13.281,3.817,20.164
			c0,14.498-5.613,28.221-16.231,39.686l-3.145,3.396c-1.712,1.849-2.663,4.275-2.663,6.795v23.564c0,2.813,1.185,5.495,3.263,7.391
			l3.853,3.512c7.253,6.613,12.13,15.35,14.028,24.801H64.913C66.811,258.208,71.688,249.471,78.941,242.858z M123.974,382.672
			c0.292,0.025,0.581,0.038,0.867,0.038c5.136,0,9.504-3.934,9.952-9.146l1.902-22.15l11.107,11.107
			c1.953,1.952,4.512,2.929,7.071,2.929s5.119-0.977,7.071-2.929c3.905-3.905,3.906-10.237,0.001-14.143l-11.107-11.108
			l22.151-1.902c5.503-0.472,9.581-5.315,9.108-10.818c-0.473-5.503-5.32-9.6-10.819-9.107l-9.413,0.808l18.907-18.907
			c16.753,23.509,14.591,56.446-6.484,77.521c-21.076,21.075-54.011,23.236-77.52,6.484l18.907-18.907l-0.808,9.412
			C114.394,377.356,118.472,382.2,123.974,382.672z M64.017,287.659h98.156l-87.206,87.206c-1.875,1.876-2.929,4.419-2.929,7.071
			c0,2.652,1.054,5.196,2.929,7.071c3.138,3.138,6.482,5.947,9.975,8.455H64.017V287.659z M219.95,429.526h-85.687
			c-5.523,0-10,4.478-10,10c0,5.522,4.477,10,10,10h85.687v21.575c0,1.025-0.078,2.064-0.23,3.093
			c-0.094,0.634-0.217,1.259-0.368,1.872c-0.011,0.046-0.029,0.091-0.04,0.137c-0.412,1.63-1.025,3.176-1.796,4.624
			c-0.077,0.146-0.143,0.297-0.224,0.441c-3.619,6.43-10.539,10.732-18.239,10.732c-5.151,0-10.104-1.904-13.945-5.361l-7.9-7.11
			c-1.901-1.712-4.296-2.567-6.69-2.567s-4.788,0.855-6.69,2.567l-7.9,7.11c-3.841,3.457-8.794,5.361-13.945,5.361
			s-10.104-1.904-13.945-5.361l-7.9-7.11c-3.804-3.424-9.576-3.424-13.38,0l-7.9,7.11C95.017,490.096,90.064,492,84.914,492
			c-10.273,0-19.157-7.654-20.666-17.803c-0.153-1.031-0.231-2.073-0.231-3.095v-53.64H219.95V429.526z M219.95,397.463h-41.496
			c3.494-2.509,6.837-5.317,9.975-8.455c27.508-27.508,30.815-70.18,9.945-101.349h21.576V397.463z M239.95,363.519v-35.274
			c7.168-4.724,15.438-7.199,24.167-7.199h10.143l-3.497,3.033c-4.172,3.619-4.621,9.935-1.002,14.107
			c1.978,2.28,4.76,3.448,7.559,3.448c2.322,0,4.656-0.805,6.548-2.445l20.918-18.143h10.004v18.5c0,5.523,4.477,10,10,10
			s10-4.477,10-10v-18.5h10.004l20.918,18.143c1.893,1.641,4.226,2.445,6.548,2.445c2.798,0,5.581-1.168,7.559-3.448
			c3.619-4.172,3.17-10.487-1.002-14.107l-3.497-3.033h10.143c23.845,0,43.334,19.01,44.112,42.669
			c-0.45-0.043-0.901-0.078-1.353-0.107c-0.471-0.059-0.94-0.088-1.405-0.088h-1.342H239.95V363.519z M389.863,383.519
			l-24.605,36.863l-24.603-36.863H389.863z M239.95,383.519h76.66l30.708,46.009H239.95V383.519z M385.462,492H264.117
			c-9.506,0-18.561-2.99-26.083-8.525c0.076-0.238,0.141-0.479,0.213-0.719c0.031-0.104,0.062-0.208,0.092-0.312
			c0.13-0.449,0.251-0.901,0.365-1.355c0.036-0.144,0.075-0.288,0.109-0.432c0.105-0.436,0.2-0.875,0.29-1.315
			c0.031-0.15,0.065-0.298,0.095-0.449c0.113-0.582,0.215-1.166,0.303-1.754c0.297-1.999,0.448-4.029,0.448-6.036v-21.575h185.524
			h1.343v-0.001c0.471,0,0.945-0.03,1.42-0.09c0.448-0.028,0.893-0.065,1.338-0.106C428.798,472.992,409.308,492,385.462,492z
			 M447.984,407.018h-0.001c0,9.278-5.643,17.261-13.676,20.702c-0.459,0.196-0.923,0.374-1.392,0.538
			c-0.179,0.063-0.358,0.124-0.539,0.183c-0.49,0.158-0.985,0.3-1.485,0.424c-0.156,0.039-0.314,0.074-0.472,0.109
			c-0.539,0.121-1.081,0.227-1.629,0.308c-0.098,0.014-0.198,0.024-0.297,0.038c-0.602,0.08-1.207,0.143-1.818,0.176
			c-0.398,0.021-0.798,0.033-1.201,0.033h-42.272l30.708-46.009h11.564c0.403,0,0.804,0.012,1.202,0.033
			c0.601,0.031,1.196,0.094,1.788,0.172c0.116,0.015,0.233,0.027,0.349,0.044c0.523,0.077,1.041,0.179,1.555,0.293
			c0.193,0.043,0.386,0.086,0.576,0.134c0.461,0.115,0.916,0.246,1.368,0.39c0.23,0.073,0.458,0.152,0.685,0.232
			c0.421,0.149,0.838,0.308,1.25,0.483c8.066,3.426,13.737,11.427,13.737,20.728V407.018z"/>
	</g>
</g>
<g>
	<g>
		<path d="M209.05,165.281c-0.13-0.641-0.32-1.271-0.57-1.87c-0.25-0.601-0.56-1.181-0.92-1.73c-0.36-0.54-0.78-1.06-1.24-1.52
			c-0.46-0.46-0.97-0.88-1.52-1.24c-0.54-0.36-1.12-0.67-1.73-0.92c-0.6-0.25-1.23-0.44-1.87-0.57c-1.29-0.26-2.62-0.26-3.91,0
			c-0.63,0.13-1.26,0.32-1.87,0.57c-0.6,0.25-1.18,0.56-1.72,0.92c-0.55,0.36-1.06,0.78-1.52,1.24c-0.46,0.46-0.88,0.979-1.25,1.52
			c-0.36,0.55-0.67,1.13-0.92,1.73c-0.24,0.6-0.44,1.229-0.57,1.87c-0.13,0.649-0.19,1.3-0.19,1.949c0,2.641,1.07,5.221,2.93,7.07
			c0.46,0.46,0.97,0.88,1.52,1.25c0.54,0.36,1.12,0.67,1.72,0.92c0.61,0.25,1.24,0.441,1.87,0.57c0.65,0.13,1.31,0.19,1.96,0.19
			s1.31-0.06,1.95-0.19s1.27-0.32,1.87-0.57c0.61-0.25,1.19-0.559,1.73-0.92c0.55-0.37,1.06-0.78,1.52-1.25
			c1.86-1.86,2.93-4.43,2.93-7.07C209.25,166.581,209.18,165.93,209.05,165.281z"/>
	</g>
</g>
<g>
	<g>
		<path d="M106.56,437.57c-0.13-0.63-0.32-1.26-0.57-1.87c-0.25-0.601-0.56-1.181-0.92-1.721c-0.36-0.55-0.78-1.06-1.24-1.52
			c-0.461-0.46-0.98-0.88-1.52-1.25c-0.55-0.36-1.13-0.67-1.73-0.92c-0.6-0.25-1.23-0.44-1.87-0.57c-1.29-0.26-2.62-0.26-3.91,0
			c-0.64,0.13-1.27,0.32-1.87,0.57c-0.6,0.25-1.18,0.56-1.73,0.92c-0.55,0.37-1.06,0.79-1.52,1.25c-0.46,0.46-0.88,0.97-1.24,1.52
			c-0.36,0.54-0.67,1.12-0.92,1.721c-0.25,0.609-0.44,1.239-0.57,1.869c-0.13,0.65-0.2,1.311-0.2,1.96c0,0.65,0.07,1.311,0.2,1.95
			c0.13,0.641,0.32,1.271,0.57,1.87c0.25,0.601,0.56,1.18,0.92,1.73c0.37,0.54,0.78,1.059,1.24,1.52c1.87,1.86,4.44,2.93,7.08,2.93
			c0.65,0,1.3-0.069,1.95-0.199c0.64-0.13,1.27-0.32,1.87-0.57c0.6-0.25,1.18-0.56,1.73-0.92c0.539-0.36,1.05-0.78,1.52-1.24
			c0.46-0.46,0.88-0.98,1.24-1.52c0.36-0.551,0.67-1.13,0.92-1.73c0.25-0.6,0.44-1.23,0.57-1.87c0.13-0.64,0.19-1.3,0.19-1.95
			C106.75,438.881,106.69,438.22,106.56,437.57z"/>
	</g>
</g>
<g>
</g>
<g>
</g>
<g>
</g>
<g>
</g>
<g>
</g>
<g>
</g>
<g>
</g>
<g>
</g>
<g>
</g>
<g>
</g>
<g>
</g>
<g>
</g>
<g>
</g>
<g>
</g>
<g>
</g>
</svg>
