<?xml version="1.0" encoding="iso-8859-1"?>
<!-- Generator: Adobe Illustrator 19.0.0, SVG Export Plug-In . SVG Version: 6.00 Build 0)  -->
<svg version="1.1" id="Capa_1" xmlns="http://www.w3.org/2000/svg" xmlns:xlink="http://www.w3.org/1999/xlink" x="0px" y="0px"
	 viewBox="0 0 512 512" style="enable-background:new 0 0 512 512;" xml:space="preserve">
<g>
	<g>
		<path d="M388.165,120.982L341.93,105.82L325.405,56.5h-138.81l-16.524,49.32l-46.235,15.287L0,252.525V423.5h87V290.607l33-33
			V455.5h40v-15h-25v-17h161v17H192v15h199V257.607l33,33V423.5h88V252.525L388.165,120.982z M72,408.5H15v-17h57V408.5z
			 M120,236.393l-33,33V255.5H72v121H15V258.475l105-112.066V236.393z M263,71.5h51.595l10.999,33H263V71.5z M248,408.5H135v-129
			h113V408.5z M248,264.5H135v-49h113V264.5z M248,200.5H135v-67.594l42.219-13.406H248V200.5z M248,104.5h-61.594l10.999-33H248
			V104.5z M376,440.5h-65v-17h65V440.5z M376,408.5H263v-129h113V408.5z M376,264.5H263v-49h113V264.5z M376,200.5H263v-81h71.781
			L376,132.906V200.5z M497,408.5h-58v-17h58V408.5z M497,376.5h-58v-121h-15v13.893l-33-33v-89.984l106,112.066V376.5z"/>
	</g>
</g>
<g>
	<g>
		<rect x="160" y="232.5" width="16" height="15"/>
	</g>
</g>
<g>
	<g>
		<rect x="208" y="232.5" width="16" height="15"/>
	</g>
</g>
<g>
	<g>
		<rect x="288" y="232.5" width="16" height="15"/>
	</g>
</g>
<g>
	<g>
		<rect x="336" y="232.5" width="16" height="15"/>
	</g>
</g>
<g>
</g>
<g>
</g>
<g>
</g>
<g>
</g>
<g>
</g>
<g>
</g>
<g>
</g>
<g>
</g>
<g>
</g>
<g>
</g>
<g>
</g>
<g>
</g>
<g>
</g>
<g>
</g>
<g>
</g>
</svg>
